<svg width="1141" height="720" viewBox="0 0 1141 720" fill="none" xmlns="http://www.w3.org/2000/svg">
<circle cx="235" cy="595" r="89.5" stroke="#633B31" stroke-width="71"/>
<circle cx="856" cy="586" r="89.5" stroke="#633B31" stroke-width="71"/>
<rect x="347" y="546" width="400" height="20" fill="#633B31"/>
<path d="M31.6207 558.5H126.062C127.408 558.5 128.5 557.409 128.5 556.062C128.5 555.11 129.049 554.248 129.913 553.848C147.069 545.917 180.387 529.835 187 524C192.963 518.739 228.837 514.374 252.414 512.256C258.249 511.731 264.038 513.55 268.595 517.231L319.939 558.701C324.175 562.122 329.488 563.93 334.932 563.801L728.199 554.542C729.398 554.514 730.593 554.392 731.772 554.178L773 546.682C777.247 545.91 781.19 543.959 784.381 541.052C796.484 530.026 814.559 513.592 817 511.5C819.401 509.442 852.377 502.087 875.491 497.196C882.154 495.786 889.082 497.447 894.417 501.681L959.719 553.515C963.786 556.743 968.82 558.517 974.012 558.433C998.321 558.039 1034.42 555.829 1044.99 549.435C1047.92 547.666 1048.81 543.881 1050.14 540.73C1071.81 489.087 1034.37 463.384 1001.7 453.58C991.066 450.388 982.616 441.446 982.088 430.356L974.44 269.741C973.9 258.401 965.13 249.17 953.833 248.05C935.997 246.281 927.02 225.629 937.894 211.381L1017.21 107.451C1024.02 98.53 1023.39 85.9975 1015.73 77.7967L1002.29 63.4115C996.83 57.5644 988.721 54.9765 980.881 56.5783L763.969 100.898C750.613 103.627 737.827 94.2056 736.478 80.6399L732.115 36.7669C730.923 24.7775 720.68 15.7402 708.635 16.0506L439 23C326.052 9.89945 295.923 130.6 293.961 213.861C293.603 229.044 279.72 240.85 264.612 239.301C113.785 223.835 65.6767 351.139 58.8717 434.828C57.9697 445.921 49.5401 454.8 40.0652 460.639C15.2499 475.935 9.44288 511.478 10.2332 538.982C10.5579 550.281 20.3173 558.5 31.6207 558.5Z" stroke="#633B31" stroke-width="20"/>
<circle cx="1042.5" cy="50.5" r="38" stroke="#633B31" stroke-width="25"/>
<path d="M1064.5 636.5L1082.13 671.291C1083.04 673.089 1084.16 674.771 1085.58 676.207C1098.49 689.315 1121.77 702.026 1130.38 667.233C1131.68 661.975 1130.45 656.472 1127.67 651.821C1119.24 637.702 1107.19 616.729 1104.5 609C1101.3 599.8 1099.17 574.167 1098.5 562.5V437.5L1091.5 213L1084 55.5" stroke="#633B31" stroke-width="11"/>
<path d="M122 538.743V539.179C122 544.879 126.621 549.5 132.321 549.5C136.879 549.5 140.897 546.51 142.207 542.145L142.297 541.844C143.615 537.45 147.578 534.378 152.161 534.197L293.81 528.587C295.258 528.529 296.703 528.736 298.079 529.189C319.57 536.269 357.646 547.582 353 541C350.024 536.784 349.969 533.504 350.834 531.302C351.691 529.119 354.25 528.493 356.594 528.479L942 525C963.667 526.167 1008.3 527.8 1013.5 525C1020 521.5 1016 499 1003 490C990 481 957 476.5 954 469.5C951.728 464.2 945.694 349.489 942.511 283.668C942.217 277.572 937.4 272.697 931.31 272.297L888.066 269.452C878.565 268.827 873.541 257.916 879.244 250.291L994.179 96.6033C995.674 94.6044 997.851 93.2242 1000.3 92.7251C1008.65 91.0199 1011.34 80.413 1004.79 74.9405L1001.25 71.971C998.268 69.4796 994.269 68.5826 990.513 69.5638L730.818 137.391C723.606 139.275 716.439 134.196 715.826 126.767L709.919 55.1475C709.401 48.8683 704.117 44.0594 697.817 44.1269C637.565 44.7731 517.769 45.5004 442 44C362.664 42.429 342.395 105.645 342.002 139.175C341.987 140.399 341.817 141.585 341.605 142.791C340.377 149.789 338.5 172.985 338.5 225C338.5 297.5 315.5 281 215 284.5C134.6 287.3 117.167 337.333 118.5 362L113.9 467.332C113.664 472.744 109.791 477.297 104.557 478.692C63.2095 489.712 50.9587 506.121 49.6321 517.405C49.0827 522.079 53.5174 525.148 58.2172 525.378L111.769 527.999C117.499 528.28 122 533.007 122 538.743Z" fill="#633B31" stroke="#633B31"/>
<path d="M1114 710.5C1079.51 723.006 1066.84 670.974 1064.33 639.105C1064.18 637.288 1066.35 636.314 1067.65 637.587C1081.94 651.535 1106.27 674.435 1112.5 677C1119.17 679.745 1120.61 663.487 1120.51 654.525C1120.5 654.178 1120.41 653.843 1120.23 653.544L1092.48 606.976C1091.76 605.777 1092.46 604.234 1093.84 603.984L1106.13 601.749C1106.95 601.599 1107.78 601.975 1108.21 602.691C1112.21 609.37 1120.36 622.602 1126 630.5C1133.5 641 1159.5 694 1114 710.5Z" fill="#633B31" stroke="#633B31"/>
<ellipse cx="1096" cy="576" rx="23" ry="31" transform="rotate(6.15359 1096 576)" fill="#633B31"/>
<path d="M500.821 290C497.621 290 494.621 289.333 491.821 288C489.154 286.533 487.821 284.4 487.821 281.6V231.4C487.821 230.333 487.621 229.467 487.221 228.8L445.821 157.2C445.554 156.667 445.354 156.2 445.221 155.8C445.221 155.267 445.221 154.867 445.221 154.6C445.221 152.467 446.154 150.6 448.021 149C449.888 147.4 452.154 146.133 454.821 145.2C457.488 144.267 460.021 143.8 462.421 143.8C464.554 143.8 466.154 144.267 467.221 145.2C468.288 146 469.288 147.267 470.221 149L500.821 206.8L531.221 149C532.288 147.267 533.354 146 534.421 145.2C535.488 144.267 537.088 143.8 539.221 143.8C541.621 143.8 544.088 144.267 546.621 145.2C549.288 146.133 551.554 147.4 553.421 149C555.421 150.6 556.421 152.467 556.421 154.6C556.421 154.867 556.354 155.267 556.221 155.8C556.221 156.2 556.088 156.667 555.821 157.2L514.421 228.8C514.021 229.467 513.821 230.333 513.821 231.4V281.6C513.821 284.4 512.421 286.533 509.621 288C506.954 289.333 504.021 290 500.821 290ZM612.935 291.2C604.135 291.2 596.202 289.733 589.135 286.8C582.068 283.733 576.402 278.867 572.135 272.2C568.002 265.4 565.935 256.4 565.935 245.2V189.8C565.935 178.6 568.002 169.667 572.135 163C576.402 156.2 582.002 151.333 588.935 148.4C596.002 145.333 604.002 143.8 612.935 143.8C621.735 143.8 629.668 145.333 636.735 148.4C643.935 151.333 649.602 156.2 653.735 163C657.868 169.667 659.935 178.6 659.935 189.8V245.2C659.935 256.4 657.868 265.4 653.735 272.2C649.602 278.867 643.935 283.733 636.735 286.8C629.668 289.733 621.735 291.2 612.935 291.2ZM612.935 268.4C619.468 268.4 624.602 266.533 628.335 262.8C632.068 259.067 633.935 253.2 633.935 245.2V189.8C633.935 181.8 632.068 175.933 628.335 172.2C624.602 168.467 619.468 166.6 612.935 166.6C606.402 166.6 601.268 168.467 597.535 172.2C593.935 175.933 592.135 181.8 592.135 189.8V245.2C592.135 253.2 593.935 259.067 597.535 262.8C601.268 266.533 606.402 268.4 612.935 268.4ZM355.34 484C352.14 484 349.14 483.333 346.34 482C343.673 480.533 342.34 478.4 342.34 475.6V350.8C342.34 346 343.673 342.667 346.34 340.8C349.14 338.8 352.14 337.8 355.34 337.8C358.54 337.8 361.207 338.133 363.34 338.8C365.607 339.467 367.673 340.8 369.54 342.8C371.54 344.8 373.607 347.733 375.74 351.6L400.34 396.4L424.74 351.6C427.14 347.733 429.207 344.8 430.94 342.8C432.807 340.8 434.873 339.467 437.14 338.8C439.407 338.133 442.073 337.8 445.14 337.8C448.473 337.8 451.473 338.8 454.14 340.8C456.807 342.667 458.14 346 458.14 350.8V475.6C458.14 478.4 456.74 480.533 453.94 482C451.273 483.333 448.34 484 445.14 484C441.94 484 438.94 483.333 436.14 482C433.473 480.533 432.14 478.4 432.14 475.6V389.8L408.94 431.4C407.74 433.267 406.34 434.667 404.74 435.6C403.14 436.4 401.54 436.8 399.94 436.8C398.473 436.8 396.94 436.4 395.34 435.6C393.873 434.8 392.54 433.4 391.34 431.4L368.34 388.4V475.6C368.34 478.4 367.007 480.533 364.34 482C361.673 483.333 358.673 484 355.34 484ZM488.384 484C485.984 484 483.517 483.533 480.984 482.6C478.45 481.667 476.317 480.4 474.584 478.8C472.85 477.2 471.984 475.333 471.984 473.2C471.984 472.8 472.05 472.133 472.184 471.2L510.784 345.4C511.717 342.467 513.784 340.267 516.984 338.8C520.317 337.333 523.85 336.6 527.584 336.6C531.45 336.6 534.984 337.333 538.184 338.8C541.384 340.267 543.45 342.467 544.384 345.4L582.984 471.2C583.25 472.133 583.384 472.8 583.384 473.2C583.384 475.2 582.45 477.067 580.584 478.8C578.85 480.4 576.717 481.667 574.184 482.6C571.65 483.533 569.184 484 566.784 484C564.65 484 562.784 483.667 561.184 483C559.717 482.2 558.717 480.8 558.184 478.8L550.584 452.2H504.584L497.184 478.8C496.65 480.8 495.584 482.2 493.984 483C492.384 483.667 490.517 484 488.384 484ZM510.184 431.8H544.984L527.584 370.4L510.184 431.8ZM625.318 484C621.985 484 618.985 483.333 616.318 482C613.651 480.533 612.318 478.4 612.318 475.6V361.2H582.918C580.385 361.2 578.385 360 576.918 357.6C575.451 355.2 574.718 352.467 574.718 349.4C574.718 346.6 575.385 344 576.718 341.6C578.051 339.067 580.118 337.8 582.918 337.8H667.518C670.451 337.8 672.518 339.067 673.718 341.6C675.051 344 675.718 346.6 675.718 349.4C675.718 352.467 674.985 355.2 673.518 357.6C672.185 360 670.185 361.2 667.518 361.2H638.318V475.6C638.318 478.4 636.918 480.533 634.118 482C631.451 483.333 628.518 484 625.318 484ZM701.005 484C698.205 484 695.605 483.333 693.205 482C690.805 480.533 689.605 478.4 689.605 475.6V346.2C689.605 343.4 690.805 341.333 693.205 340C695.605 338.533 698.205 337.8 701.005 337.8H772.205C775.139 337.8 777.205 339 778.405 341.4C779.739 343.8 780.405 346.333 780.405 349C780.405 352.2 779.672 354.933 778.205 357.2C776.872 359.467 774.872 360.6 772.205 360.6H715.605V400.6H746.005C748.672 400.6 750.672 401.667 752.005 403.8C753.472 405.8 754.205 408.2 754.205 411C754.205 413.267 753.539 415.533 752.205 417.8C751.005 419.933 748.939 421 746.005 421H715.605V461.2H772.205C774.872 461.2 776.872 462.333 778.205 464.6C779.672 466.867 780.405 469.6 780.405 472.8C780.405 475.467 779.739 478 778.405 480.4C777.205 482.8 775.139 484 772.205 484H701.005Z" fill="white"/>
</svg>
